<svg version="1.1" xmlns="http://www.w3.org/2000/svg" xmlns:xlink="http://www.w3.org/1999/xlink" width="25.14991" height="37.66497" viewBox="0,0,25.14991,37.66497"><g transform="translate(-227.40717,-161.16368)"><g data-paper-data="{&quot;isPaintingLayer&quot;:true}" fill-rule="nonzero" stroke-miterlimit="10" stroke-dasharray="" stroke-dashoffset="0" style="mix-blend-mode: normal"><path d="M248.20801,165.219h-16.45172v29.37807h16.45172v-29.37807M228.81847,162.2812h22.32734v35.25369h-22.32734v-35.25369" fill="#ffffff" stroke="none" stroke-width="1" stroke-linecap="butt" stroke-linejoin="miter"/><path d="M248.20801,165.219v29.37807h-16.45172v-29.37807h16.45172" fill="#00e63d" stroke="none" stroke-width="1" stroke-linecap="butt" stroke-linejoin="miter"/><path d="M228.81847,162.2812l2.37962,0.08813c0.47005,-0.07834 1.15554,-0.08813 2.05647,-0.02938c0.90093,0.05876 1.67455,0.04896 2.32087,-0.02938l2.11522,-0.08813l2.70278,0.02938l2.70278,-0.05876h2.23273l2.26211,-0.02938l1.76268,0.11751c0.41129,0.1371 1.00865,0.1371 1.79206,0l-0.23502,2.35025c-0.07834,0.803 -0.09793,1.58642 -0.05876,2.35025l0.14689,2.29149l0.11751,2.64403l0.02938,2.37962v2.1446c0,0.84217 0.08813,1.53745 0.2644,2.08584c0.19585,0.54839 0.24482,1.28284 0.14689,2.20336l-0.38191,2.84967l-0.32316,2.43838c-0.03917,0.64632 0,1.35139 0.11751,2.11522c0.11751,0.76383 0.1273,1.51787 0.02938,2.26211c-0.09793,0.76383 -0.09793,1.55704 0,2.37962l0.17627,1.82144l-0.02938,2.93781l-2.29149,-0.05876l-2.52651,0.23502l-2.52651,0.11751l-2.05647,-0.23502l-2.52651,-0.23502l-2.37962,0.29378c-0.64632,0.23502 -1.36118,0.24482 -2.1446,0.02938l-2.35025,-0.08813l-1.85082,0.02938l-1.67455,-0.08813l0.11751,-2.29149l0.08813,-2.61465c0.01959,-0.99885 -0.05876,-1.81165 -0.23502,-2.43838c-0.15668,-0.60715 -0.19585,-1.30243 -0.11751,-2.08584l0.2644,-2.35025c0.09793,-0.803 0.04896,-1.51787 -0.14689,-2.1446c-0.19585,-0.62673 -0.2742,-1.41015 -0.23502,-2.35025c0.05876,-0.92051 0.16648,-1.70393 0.32316,-2.35025c0.15668,-0.64632 0.2742,-1.50807 0.35254,-2.58527l0.08813,-2.55589c0,-0.62673 -0.16648,-1.25346 -0.49943,-1.8802c-0.33295,-0.60715 -0.47005,-1.31222 -0.41129,-2.11522l0.2644,-2.58527c0.09793,-0.92051 0.23502,-1.49828 0.41129,-1.73331c0.17627,-0.21544 0.08813,-1.27305 -0.2644,-3.17283" fill="none" stroke="#2a2a2a" stroke-width="2" stroke-linecap="round" stroke-linejoin="round"/><path d="M239.37732,177.4109c0,0.31337 -0.11751,0.57777 -0.35254,0.79321c-0.21544,0.23502 -0.48963,0.35254 -0.82259,0.35254c-0.33295,0 -0.61694,-0.11751 -0.85196,-0.35254c-0.21544,-0.21544 -0.32316,-0.47984 -0.32316,-0.79321c0,-0.33295 0.10772,-0.61694 0.32316,-0.85196c0.23502,-0.23502 0.51901,-0.35254 0.85196,-0.35254c0.33295,0 0.60715,0.11751 0.82259,0.35254c0.23502,0.23502 0.35254,0.51901 0.35254,0.85196M247.01561,177.4109c0,0.31337 -0.10772,0.57777 -0.32316,0.79321c-0.23502,0.23502 -0.51901,0.35254 -0.85196,0.35254c-0.31337,0 -0.59735,-0.11751 -0.85196,-0.35254c-0.21544,-0.21544 -0.32316,-0.47984 -0.32316,-0.79321c0,-0.33295 0.10772,-0.61694 0.32316,-0.85196c0.25461,-0.23502 0.5386,-0.35254 0.85196,-0.35254c0.33295,0 0.61694,0.11751 0.85196,0.35254c0.21544,0.23502 0.32316,0.51901 0.32316,0.85196M244.57725,181.61197c-0.68549,0.70507 -1.53745,1.05761 -2.55589,1.05761c-1.03803,0 -1.90957,-0.36233 -2.61465,-1.08699l-0.49943,-0.61694c-0.11751,-0.19585 -0.14689,-0.4015 -0.08813,-0.61694c0.05876,-0.19585 0.17627,-0.35254 0.35254,-0.47005c0.17627,-0.1371 0.38191,-0.17627 0.61694,-0.11751c0.19585,0.05876 0.35254,0.17627 0.47005,0.35254l0.2644,0.35254c0.41129,0.41129 0.91072,0.61694 1.49828,0.61694c0.56798,0 1.05761,-0.20565 1.4689,-0.61694l0.02938,-0.02938l0.2644,-0.32316c0.11751,-0.17627 0.28399,-0.29378 0.49943,-0.35254l0.58756,0.11751l0.35254,0.47005c0.05876,0.21544 0.01959,0.42109 -0.11751,0.61694l-0.47005,0.58756l-0.05876,0.05876" fill="#ffffff" stroke="none" stroke-width="1" stroke-linecap="butt" stroke-linejoin="miter"/><path d="M239.37732,177.4109c0,0.31337 -0.11751,0.57777 -0.35254,0.79321c-0.21544,0.23502 -0.48963,0.35254 -0.82259,0.35254c-0.33295,0 -0.61694,-0.11751 -0.85196,-0.35254c-0.21544,-0.21544 -0.32316,-0.47984 -0.32316,-0.79321c0,-0.33295 0.10772,-0.61694 0.32316,-0.85196c0.23502,-0.23502 0.51901,-0.35254 0.85196,-0.35254c0.33295,0 0.60715,0.11751 0.82259,0.35254c0.23502,0.23502 0.35254,0.51901 0.35254,0.85196M247.01561,177.4109c0,0.31337 -0.10772,0.57777 -0.32316,0.79321c-0.23502,0.23502 -0.51901,0.35254 -0.85196,0.35254c-0.31337,0 -0.59735,-0.11751 -0.85196,-0.35254c-0.21544,-0.21544 -0.32316,-0.47984 -0.32316,-0.79321c0,-0.33295 0.10772,-0.61694 0.32316,-0.85196c0.25461,-0.23502 0.5386,-0.35254 0.85196,-0.35254c0.33295,0 0.61694,0.11751 0.85196,0.35254c0.21544,0.23502 0.32316,0.51901 0.32316,0.85196M244.57725,181.61197c-0.68549,0.70507 -1.53745,1.05761 -2.55589,1.05761c-1.03803,0 -1.90957,-0.36233 -2.61465,-1.08699l-0.49943,-0.61694c-0.11751,-0.19585 -0.14689,-0.4015 -0.08813,-0.61694c0.05876,-0.19585 0.17627,-0.35254 0.35254,-0.47005c0.17627,-0.1371 0.38191,-0.17627 0.61694,-0.11751c0.19585,0.05876 0.35254,0.17627 0.47005,0.35254l0.2644,0.35254c0.41129,0.41129 0.91072,0.61694 1.49828,0.61694c0.56798,0 1.05761,-0.20565 1.4689,-0.61694l0.02938,-0.02938l0.2644,-0.32316c0.11751,-0.17627 0.28399,-0.29378 0.49943,-0.35254l0.58756,0.11751l0.35254,0.47005c0.05876,0.21544 0.01959,0.42109 -0.11751,0.61694l-0.47005,0.58756l-0.05876,0.05876" fill="#ffffff" stroke="none" stroke-width="1" stroke-linecap="butt" stroke-linejoin="miter"/></g></g></svg>