<svg version="1.1" xmlns="http://www.w3.org/2000/svg" xmlns:xlink="http://www.w3.org/1999/xlink" width="29.58601" height="7.28804" viewBox="0,0,29.58601,7.28804"><g transform="translate(-225.207,-176.35599)"><g data-paper-data="{&quot;isPaintingLayer&quot;:true}" fill-rule="nonzero" stroke-miterlimit="10" stroke-dasharray="" stroke-dashoffset="0" style="mix-blend-mode: normal"><path d="M226.26574,181.41015v-2.8203h21.73978l1.17512,-1.23388l4.61236,2.64403l-4.61236,2.64403l-1.17512,-1.23388h-21.73978" fill="#ffffff" stroke="none" stroke-width="1" stroke-linecap="butt" stroke-linejoin="miter"/><path d="M248.00552,178.58986c-0.11751,0.9401 -0.1273,1.4787 -0.02938,1.61579c0.11751,0.15668 0.1273,0.55818 0.02938,1.2045M232.02384,178.58986c-0.09793,1.0772 -0.04896,1.64517 0.14689,1.70393c0.19585,0.07834 0.14689,0.45046 -0.14689,1.11637" fill="none" stroke="#b2b7bb" stroke-width="2" stroke-linecap="round" stroke-linejoin="round"/><path d="M251.41337,178.76612c0.56798,0.25461 0.98906,0.46026 1.26326,0.61694l1.11637,0.61694c-0.2742,0.17627 -0.68549,0.29378 -1.23388,0.35254c-0.54839,0.07834 -1.0772,0.39171 -1.58642,0.9401c-0.50922,0.56798 -1.10657,1.01844 -1.79206,1.35139c-0.68549,-0.54839 -1.0772,-0.95968 -1.17512,-1.23388c-0.11751,-0.31337 -0.51901,-0.44067 -1.2045,-0.38191l-1.90957,0.23502l-1.8802,0.41129c-0.64632,0.17627 -1.44932,0.17627 -2.409,0l-2.58527,-0.17627h-2.32087l-2.1446,0.11751l-2.409,0.14689l-2.58527,-0.11751l-2.29149,-0.23502l-0.05876,-1.52766l0.05876,-1.29264c0.84217,-0.2742 1.67455,-0.28399 2.49714,-0.02938l2.11522,0.20565l2.20336,-0.14689l2.73216,0.14689l2.409,0.20565h2.1446l2.29149,-0.23502l2.29149,-0.38191l1.76268,0.02938l1.29264,0.20565l1.17512,-1.23388c0.92051,0.70507 1.66476,1.17512 2.23273,1.41015" fill="none" stroke="#2a2a2a" stroke-width="2" stroke-linecap="round" stroke-linejoin="round"/></g></g></svg>