<svg version="1.1" xmlns="http://www.w3.org/2000/svg" xmlns:xlink="http://www.w3.org/1999/xlink" width="11.31284" height="38.19379" viewBox="0,0,11.31284,38.19379"><g transform="translate(-234.24312,-160.9031)"><g data-paper-data="{&quot;isPaintingLayer&quot;:true}" fill-rule="nonzero" stroke-miterlimit="10" stroke-dasharray="" stroke-dashoffset="0" style="mix-blend-mode: normal"><path d="M239.4148,167.04426c0.03917,0.58756 0.35254,1.11637 0.9401,1.58642c1.50807,1.15554 2.61465,2.75175 3.31972,4.78863c0.58756,1.76268 0.88134,3.84853 0.88134,6.25753v0.02938v0.29378v0.35254c0,1.84103 -0.17627,3.49599 -0.52881,4.96489c-0.64632,2.64403 -1.8704,4.67111 -3.67226,6.08126c-0.58756,0.47005 -0.90093,0.99885 -0.9401,1.58642c0.03917,0.74424 0.45046,1.57662 1.23388,2.49714l-3.23159,2.61465c-0.68549,-0.84217 -1.2045,-1.65496 -1.55704,-2.43838c-0.45046,-0.9401 -0.65611,-1.84103 -0.61694,-2.70278c-0.03917,-1.78227 0.79321,-3.37848 2.49714,-4.78863c1.15554,-1.03803 1.93895,-2.51672 2.35025,-4.43609c0.19585,-0.99885 0.29378,-2.11522 0.29378,-3.3491v-0.02938v-0.35254v-0.32316c0,-1.64517 -0.17627,-3.07491 -0.52881,-4.2892c-0.43088,-1.48849 -1.13595,-2.66361 -2.11522,-3.52537c-1.70393,-1.41015 -2.53631,-3.00636 -2.49714,-4.78863c-0.01959,-0.72466 0.11751,-1.4689 0.41129,-2.23273c0.35254,-0.9401 0.9401,-1.91937 1.76268,-2.93781l3.23159,2.64403c-0.78342,0.92051 -1.19471,1.75289 -1.23388,2.49714" fill="#ffffff" stroke="none" stroke-width="1" stroke-linecap="butt" stroke-linejoin="miter"/><path d="M239.85548,175.38764c0.64632,-0.33295 1.11637,-0.51901 1.41015,-0.55818c0.29378,-0.03917 1.09678,-0.50922 2.409,-1.41015M239.4148,167.04426c-0.68549,-0.45046 -1.23388,-0.69528 -1.64517,-0.73445c-0.41129,-0.03917 -1.11637,-0.52881 -2.11522,-1.4689M240.09049,183.73101l1.64517,0.49943c0.45046,0.05876 1.21429,0.42109 2.29149,1.08699M239.4148,192.9851l-0.96948,1.2045c-0.33295,0.37212 -1.19471,0.86176 -2.58527,1.4689" fill="none" stroke="#b2b7bb" stroke-width="2" stroke-linecap="round" stroke-linejoin="round"/><path d="M240.64868,164.54713l-0.61694,0.99885l-0.61694,1.49828c1.0772,1.23388 1.69414,2.01729 1.85082,2.35025l0.85196,1.55704c0.43088,0.70507 0.79321,1.44932 1.08699,2.23273c0.31337,0.78342 0.48963,1.43953 0.52881,1.96833l0.41129,2.32087l0.41129,2.20336c0.2742,0 0.2742,0.00979 0,0.02938v1.11637l-0.17627,1.90957l-0.41129,2.35025c-0.15668,0.70507 -0.39171,1.39056 -0.70507,2.05647l-0.91072,2.23273c-0.31337,0.82259 -0.69528,1.4689 -1.14574,1.93895l-1.79206,1.67455c0.01959,0.70507 0.20565,1.04782 0.55818,1.02823c0.35254,0 0.57777,0.48963 0.6757,1.4689l-2.11522,1.73331l-1.11637,0.88134l-0.47005,-1.17512c-0.09793,-0.41129 -0.42109,-0.99885 -0.96948,-1.76268c-0.52881,-0.76383 -0.77362,-1.49828 -0.73445,-2.20336c0.11751,0.15668 0.22523,0 0.32316,-0.47005c0.09793,-0.45046 0.33295,-1.09678 0.70507,-1.93895c0.37212,-0.82259 0.82259,-1.44932 1.35139,-1.8802c0.54839,-0.41129 0.94989,-1.02823 1.2045,-1.85082c0.2742,-0.803 0.60715,-1.49828 0.99885,-2.08584c0.41129,-0.56798 0.65611,-1.22409 0.73445,-1.96833c0.07834,-0.72466 0.01959,-1.51787 -0.17627,-2.37962v-0.02938c-0.09793,-0.803 -0.23502,-1.41994 -0.41129,-1.85082c-0.15668,-0.43088 -0.25461,-1.04782 -0.29378,-1.85082l-0.23502,-2.08584c-0.11751,-0.60715 -0.52881,-1.29264 -1.23388,-2.05647c-0.70507,-0.76383 -1.22409,-1.4689 -1.55704,-2.11522l-1.02823,-1.82144c-0.37212,-0.56798 -0.44067,-1.29264 -0.20565,-2.17398l0.70507,-2.43838c0.21544,-0.74424 0.64632,-1.42973 1.29264,-2.05647c1.19471,0.803 1.82144,1.32201 1.8802,1.55704c0.05876,0.25461 0.50922,0.61694 1.35139,1.08699" fill="none" stroke="#2a2a2a" stroke-width="2" stroke-linecap="round" stroke-linejoin="round"/></g></g></svg>